<svg xmlns="http://www.w3.org/2000/svg" xmlns:xlink="http://www.w3.org/1999/xlink" width="150" zoomAndPan="magnify" viewBox="0 0 112.5 112.499997" height="150" preserveAspectRatio="xMidYMid meet" version="1.0"><defs><clipPath id="73b9f189d5"><path d="M 0 0 L 112.003906 0 L 112.003906 112.003906 L 0 112.003906 Z M 0 0 " clip-rule="nonzero"/></clipPath><clipPath id="2fe73e14ba"><path d="M 18.890625 18.890625 L 92.8125 18.890625 L 92.8125 92.8125 L 18.890625 92.8125 Z M 18.890625 18.890625 " clip-rule="nonzero"/></clipPath></defs><g clip-path="url(#73b9f189d5)"><path fill="#ffffff" d="M 0 0 L 112.003906 0 L 112.003906 112.003906 L 0 112.003906 Z M 0 0 " fill-opacity="1" fill-rule="nonzero"/><path fill="#ffffff" d="M 0 0 L 112.003906 0 L 112.003906 112.003906 L 0 112.003906 Z M 0 0 " fill-opacity="1" fill-rule="nonzero"/></g><g clip-path="url(#2fe73e14ba)"><path fill="#202020" d="M 55.851562 20.695312 C 75.238281 20.695312 91.011719 36.46875 91.011719 55.851562 C 91.011719 75.238281 75.238281 91.011719 55.851562 91.011719 C 36.46875 91.011719 20.695312 75.238281 20.695312 55.851562 C 20.695312 36.46875 36.46875 20.695312 55.851562 20.695312 Z M 55.851562 92.8125 C 76.234375 92.8125 92.8125 76.234375 92.8125 55.851562 C 92.8125 35.472656 76.234375 18.890625 55.851562 18.890625 C 35.472656 18.890625 18.890625 35.472656 18.890625 55.851562 C 18.890625 76.234375 35.472656 92.8125 55.851562 92.8125 " fill-opacity="1" fill-rule="nonzero"/></g><path fill="#202020" d="M 54.828125 82.90625 L 53.574219 82.90625 L 50.917969 78.660156 C 50.652344 78.238281 50.09375 78.113281 49.675781 78.378906 C 49.25 78.640625 49.125 79.199219 49.386719 79.621094 L 52.3125 84.277344 C 52.476562 84.542969 52.765625 84.683594 53.074219 84.683594 L 54.828125 84.683594 C 55.328125 84.683594 55.730469 84.292969 55.730469 83.796875 C 55.730469 83.296875 55.328125 82.90625 54.828125 82.90625 " fill-opacity="1" fill-rule="nonzero"/><path fill="#202020" d="M 60.878906 82.046875 L 58.496094 82.285156 L 54.117188 75.722656 C 53.84375 75.308594 53.28125 75.195312 52.867188 75.472656 C 52.453125 75.746094 52.339844 76.308594 52.617188 76.722656 L 57.296875 83.738281 C 57.464844 83.988281 57.746094 84.140625 58.046875 84.140625 C 58.074219 84.140625 58.105469 84.136719 58.136719 84.132812 L 61.058594 83.84375 C 61.554688 83.792969 61.914062 83.351562 61.867188 82.855469 C 61.816406 82.359375 61.378906 82.007812 60.878906 82.046875 " fill-opacity="1" fill-rule="nonzero"/><path fill="#202020" d="M 75.941406 74.613281 C 75.941406 74.566406 75.976562 74.53125 76.023438 74.53125 C 76.070312 74.53125 76.109375 74.566406 76.109375 74.613281 C 76.109375 74.703125 75.941406 74.703125 75.941406 74.613281 Z M 76.023438 72.894531 C 75.078125 72.894531 74.304688 73.664062 74.304688 74.613281 C 74.304688 75.5625 75.078125 76.332031 76.023438 76.332031 C 76.972656 76.332031 77.746094 75.5625 77.746094 74.613281 C 77.746094 73.664062 76.972656 72.894531 76.023438 72.894531 " fill-opacity="1" fill-rule="nonzero"/><path fill="#202020" d="M 71.523438 77.070312 L 66.898438 76.785156 C 66.6875 76.773438 66.480469 76.832031 66.324219 76.9375 L 60.617188 65.265625 C 60.464844 64.957031 60.144531 64.722656 59.800781 64.722656 L 56 64.722656 C 55.761719 64.722656 55.53125 64.855469 55.359375 65.023438 L 52.4375 67.964844 C 51.132812 69.269531 49.113281 69.4375 47.621094 68.46875 L 54.671875 59.84375 L 62.230469 59.84375 L 71.429688 64.160156 C 71.453125 64.171875 71.375 64.191406 71.523438 64.203125 Z M 71.523438 62.214844 L 62.839844 58.15625 C 62.722656 58.101562 62.5625 58.070312 62.429688 58.070312 L 54.246094 58.070312 C 53.976562 58.070312 53.71875 58.191406 53.546875 58.402344 L 45.652344 68.050781 C 45.359375 68.40625 45.386719 68.929688 45.714844 69.257812 C 47.917969 71.460938 51.507812 71.484375 53.710938 69.28125 L 56.371094 66.644531 L 59.238281 66.644531 L 65.644531 79.707031 L 63.328125 81.121094 L 58.824219 73.433594 C 58.570312 73.003906 58.019531 72.855469 57.589844 73.109375 C 57.160156 73.359375 57.015625 73.910156 57.269531 74.339844 L 62.238281 82.816406 C 62.359375 83.027344 62.5625 83.175781 62.796875 83.234375 C 62.867188 83.253906 62.941406 83.261719 63.015625 83.261719 C 63.179688 83.261719 63.34375 83.214844 63.488281 83.128906 L 67.289062 80.789062 C 67.683594 80.546875 67.828125 80.042969 67.625 79.625 L 67.125 78.605469 L 71.4375 78.875 C 71.449219 78.875 71.457031 78.902344 71.46875 78.902344 C 71.484375 79.386719 71.878906 79.804688 72.371094 79.804688 L 77.339844 79.804688 C 77.839844 79.804688 78.242188 79.339844 78.242188 78.84375 C 78.242188 78.34375 77.839844 77.882812 77.339844 77.882812 L 73.296875 77.882812 L 73.296875 60.4375 L 77.632812 60.4375 C 78.128906 60.4375 78.535156 60.046875 78.535156 59.550781 C 78.535156 59.050781 78.128906 58.660156 77.632812 58.660156 L 72.371094 58.660156 C 71.871094 58.660156 71.523438 59.058594 71.523438 59.558594 L 71.523438 62.214844 " fill-opacity="1" fill-rule="nonzero"/><path fill="#202020" d="M 35.679688 73.359375 C 35.726562 73.359375 35.765625 73.398438 35.765625 73.445312 C 35.765625 73.535156 35.597656 73.535156 35.597656 73.445312 C 35.597656 73.398438 35.636719 73.359375 35.679688 73.359375 Z M 35.679688 75.164062 C 36.628906 75.164062 37.402344 74.394531 37.402344 73.445312 C 37.402344 72.496094 36.628906 71.722656 35.679688 71.722656 C 34.734375 71.722656 33.960938 72.496094 33.960938 73.445312 C 33.960938 74.394531 34.734375 75.164062 35.679688 75.164062 " fill-opacity="1" fill-rule="nonzero"/><path fill="#202020" d="M 34.074219 59.253906 L 38.554688 59.253906 L 38.554688 76.699219 L 34.367188 76.699219 C 33.867188 76.699219 33.464844 77.160156 33.464844 77.660156 C 33.464844 78.15625 33.867188 78.621094 34.367188 78.621094 L 39.335938 78.621094 C 39.832031 78.621094 40.179688 78.179688 40.179688 77.683594 L 40.179688 76.828125 C 40.179688 76.828125 40.246094 76.828125 40.265625 76.828125 L 42.890625 76.589844 L 47.007812 84.511719 C 47.160156 84.808594 47.476562 84.976562 47.8125 84.976562 L 50.152344 84.976562 C 50.648438 84.976562 51.054688 84.589844 51.054688 84.089844 C 51.054688 83.59375 50.648438 83.203125 50.152344 83.203125 L 48.363281 83.203125 L 44.230469 75.21875 C 44.0625 74.890625 43.6875 74.710938 43.320312 74.734375 L 40.179688 75.023438 L 40.179688 60.730469 L 48.105469 60.730469 C 48.605469 60.730469 49.007812 60.269531 49.007812 59.769531 C 49.007812 59.273438 48.605469 58.808594 48.105469 58.808594 L 40.179688 58.808594 L 40.179688 58.386719 C 40.179688 57.890625 39.832031 57.480469 39.335938 57.480469 L 34.074219 57.480469 C 33.574219 57.480469 33.171875 57.867188 33.171875 58.367188 C 33.171875 58.863281 33.574219 59.253906 34.074219 59.253906 " fill-opacity="1" fill-rule="nonzero"/><path fill="#202020" d="M 63.023438 32.191406 C 63.519531 32.191406 63.835938 31.789062 63.835938 31.289062 L 63.835938 28.5 L 66.496094 28.5 L 66.496094 34.992188 C 66.496094 35.488281 66.886719 35.890625 67.382812 35.890625 C 67.882812 35.890625 68.273438 35.488281 68.273438 34.992188 L 68.273438 27.589844 C 68.273438 27.09375 67.855469 26.726562 67.355469 26.726562 L 63.042969 26.726562 C 62.546875 26.726562 62.210938 27.09375 62.210938 27.589844 L 62.210938 31.289062 C 62.210938 31.789062 62.523438 32.191406 63.023438 32.191406 " fill-opacity="1" fill-rule="nonzero"/><path fill="#202020" d="M 41.613281 41.429688 L 55.800781 29.457031 L 70.097656 41.433594 C 70.265625 41.574219 70.472656 41.644531 70.675781 41.644531 C 70.933594 41.644531 71.1875 41.535156 71.367188 41.320312 C 71.6875 40.9375 71.636719 40.371094 71.253906 40.050781 L 56.378906 27.589844 C 56.042969 27.308594 55.550781 27.308594 55.21875 27.59375 L 40.449219 40.054688 C 40.070312 40.375 40.023438 40.941406 40.34375 41.324219 C 40.664062 41.703125 41.234375 41.75 41.613281 41.429688 " fill-opacity="1" fill-rule="nonzero"/><path fill="#202020" d="M 58.808594 43.582031 L 62.800781 43.582031 L 62.800781 47.425781 L 58.808594 47.425781 Z M 64.574219 42.5625 C 64.574219 42.0625 64.171875 41.660156 63.675781 41.660156 L 57.9375 41.660156 C 57.4375 41.660156 57.035156 42.0625 57.035156 42.5625 L 57.035156 48.296875 C 57.035156 48.796875 57.4375 49.199219 57.9375 49.199219 L 63.675781 49.199219 C 64.171875 49.199219 64.574219 48.796875 64.574219 48.296875 L 64.574219 42.5625 " fill-opacity="1" fill-rule="nonzero"/><path fill="#202020" d="M 44.320312 40.796875 C 43.824219 40.796875 43.433594 41.203125 43.433594 41.699219 L 43.433594 53.921875 C 43.433594 54.417969 43.851562 54.816406 44.351562 54.816406 L 48.425781 54.816406 C 48.921875 54.816406 49.347656 54.417969 49.347656 53.921875 L 49.347656 44.023438 L 53.191406 44.023438 L 53.191406 54.160156 C 53.191406 54.660156 53.679688 55.113281 54.175781 55.113281 L 67.355469 55.113281 C 67.855469 55.113281 68.273438 54.660156 68.273438 54.160156 L 68.273438 41.460938 C 68.273438 40.960938 67.882812 40.558594 67.382812 40.558594 C 66.886719 40.558594 66.496094 40.960938 66.496094 41.460938 L 66.496094 53.191406 L 55.113281 53.191406 L 55.113281 43.136719 C 55.113281 42.640625 54.675781 42.25 54.175781 42.25 L 48.425781 42.25 C 47.925781 42.25 47.574219 42.640625 47.574219 43.136719 L 47.574219 52.894531 L 45.207031 52.894531 L 45.207031 41.699219 C 45.207031 41.203125 44.820312 40.796875 44.320312 40.796875 " fill-opacity="1" fill-rule="nonzero"/></svg>