<svg xmlns="http://www.w3.org/2000/svg" xmlns:xlink="http://www.w3.org/1999/xlink" width="150" height="150" preserveAspectRatio="xMidYMid meet" version="1.0" viewBox="0 0 112.5 112.5" zoomAndPan="magnify"><defs><clipPath id="9ec7c0d8a8"><path d="M 0 0 L 112.003906 0 L 112.003906 112.003906 L 0 112.003906 Z M 0 0" clip-rule="nonzero"/></clipPath><clipPath id="f6d944d8fb"><path d="M 23.652344 23.652344 L 88.613281 23.652344 L 88.613281 88.613281 L 23.652344 88.613281 Z M 23.652344 23.652344" clip-rule="nonzero"/></clipPath></defs><g clip-path="url(#9ec7c0d8a8)"><path fill="#fff" fill-opacity="1" fill-rule="nonzero" d="M 0 0 L 112.003906 0 L 112.003906 112.003906 L 0 112.003906 Z M 0 0"/><path fill="#fff" fill-opacity="1" fill-rule="nonzero" d="M 0 0 L 112.003906 0 L 112.003906 112.003906 L 0 112.003906 Z M 0 0"/></g><path fill="#000" fill-opacity="1" fill-rule="nonzero" d="M 71.699219 42.484375 L 82.082031 44.816406 C 82.128906 44.816406 82.230469 44.816406 82.28125 44.816406 C 82.738281 44.816406 83.144531 44.511719 83.246094 44.003906 C 83.347656 43.449219 83.042969 42.941406 82.484375 42.789062 L 72.105469 40.460938 C 71.546875 40.359375 71.042969 40.664062 70.890625 41.21875 C 70.839844 41.828125 71.144531 42.382812 71.699219 42.484375 Z M 71.699219 42.484375"/><path fill="#000" fill-opacity="1" fill-rule="nonzero" d="M 69.828125 46.132812 C 69.726562 46.6875 70.03125 47.195312 70.585938 47.347656 L 80.964844 49.675781 C 81.015625 49.675781 81.117188 49.675781 81.167969 49.675781 C 81.625 49.675781 82.03125 49.371094 82.128906 48.867188 C 82.230469 48.308594 81.929688 47.800781 81.371094 47.648438 L 70.992188 45.320312 C 70.484375 45.269531 69.929688 45.625 69.828125 46.132812 Z M 69.828125 46.132812"/><path fill="#000" fill-opacity="1" fill-rule="nonzero" d="M 68.664062 50.992188 C 68.5625 51.550781 68.863281 52.054688 69.421875 52.207031 L 79.800781 54.535156 C 79.851562 54.535156 79.953125 54.535156 80.003906 54.535156 C 80.460938 54.535156 80.863281 54.230469 80.964844 53.726562 C 81.066406 53.167969 80.765625 52.664062 80.207031 52.511719 L 69.828125 50.183594 C 69.320312 50.132812 68.816406 50.484375 68.664062 50.992188 Z M 68.664062 50.992188"/><path fill="#000" fill-opacity="1" fill-rule="nonzero" d="M 67.546875 55.902344 C 67.449219 56.460938 67.75 56.964844 68.308594 57.117188 L 78.6875 59.449219 C 78.738281 59.449219 78.839844 59.449219 78.890625 59.449219 C 79.347656 59.449219 79.75 59.144531 79.851562 58.636719 C 79.953125 58.082031 79.648438 57.574219 79.09375 57.421875 L 68.765625 55.144531 C 68.207031 54.992188 67.648438 55.347656 67.546875 55.902344 Z M 67.546875 55.902344"/><path fill="#000" fill-opacity="1" fill-rule="nonzero" d="M 68.054688 69.320312 L 74.992188 70.890625 C 75.042969 70.890625 75.144531 70.890625 75.195312 70.890625 C 75.648438 70.890625 76.054688 70.585938 76.15625 70.082031 C 76.257812 69.523438 75.953125 69.015625 75.398438 68.863281 L 65.066406 66.535156 L 66.839844 67.800781 C 67.449219 68.207031 67.800781 68.714844 68.054688 69.320312 Z M 68.054688 69.320312"/><path fill="#000" fill-opacity="1" fill-rule="nonzero" d="M 74.28125 73.777344 L 68.207031 72.410156 L 68.207031 74.484375 L 73.878906 75.75 C 73.929688 75.75 74.03125 75.75 74.082031 75.75 C 74.535156 75.75 74.941406 75.449219 75.042969 74.941406 C 75.195312 74.433594 74.839844 73.929688 74.28125 73.777344 Z M 74.28125 73.777344"/><path fill="#000" fill-opacity="1" fill-rule="nonzero" d="M 76.359375 66.03125 C 76.8125 66.03125 77.21875 65.726562 77.320312 65.21875 C 77.421875 64.664062 77.117188 64.15625 76.5625 64.003906 L 63.144531 60.964844 L 63.144531 63.042969 L 76.105469 65.980469 C 76.207031 66.03125 76.257812 66.03125 76.359375 66.03125 Z M 76.359375 66.03125"/><path fill="#000" fill-opacity="1" fill-rule="nonzero" d="M 60.257812 41.828125 L 61.117188 42.132812 C 61.675781 42.332031 62.183594 42.738281 62.535156 43.195312 C 63.546875 42.585938 64.359375 41.574219 64.613281 40.359375 C 64.863281 39.195312 64.664062 37.980469 64.054688 36.964844 C 63.398438 35.953125 62.382812 35.195312 61.167969 34.941406 C 60.257812 34.738281 59.398438 34.839844 58.585938 35.09375 C 58.890625 35.648438 59.042969 36.308594 59.042969 36.964844 L 59.042969 37.066406 C 59.398438 36.917969 59.75 36.816406 60.15625 36.816406 C 60.359375 36.816406 60.5625 36.816406 60.714844 36.867188 C 61.371094 37.015625 61.929688 37.421875 62.28125 37.980469 C 62.636719 38.535156 62.738281 39.195312 62.585938 39.851562 C 62.433594 41.066406 61.371094 41.828125 60.257812 41.828125 Z M 60.257812 41.828125"/><path fill="#000" fill-opacity="1" fill-rule="nonzero" d="M 63.144531 56.914062 L 63.144531 58.992188 L 63.699219 59.09375 C 63.75 59.09375 63.851562 59.09375 63.902344 59.09375 C 64.359375 59.09375 64.765625 58.789062 64.863281 58.332031 L 66.332031 52.003906 C 66.585938 50.839844 66.382812 49.625 65.777344 48.613281 C 65.167969 47.648438 64.207031 46.941406 63.144531 46.636719 L 63.144531 48.816406 C 63.5 49.015625 63.851562 49.320312 64.054688 49.675781 C 64.410156 50.234375 64.511719 50.890625 64.359375 51.550781 Z M 63.144531 56.914062"/><g clip-path="url(#f6d944d8fb)"><path fill="#000" fill-opacity="1" fill-rule="nonzero" d="M 24.96875 77.675781 L 54.332031 88.410156 C 54.535156 88.511719 54.789062 88.511719 55.042969 88.511719 C 55.449219 88.511719 55.851562 88.410156 56.207031 88.15625 C 56.765625 87.800781 57.066406 87.144531 57.066406 86.484375 L 57.066406 84.308594 L 59.699219 85.421875 C 59.800781 85.472656 59.953125 85.523438 60.105469 85.523438 C 60.308594 85.523438 60.511719 85.472656 60.664062 85.371094 C 60.964844 85.167969 61.117188 84.863281 61.117188 84.511719 L 61.117188 81.574219 L 65.167969 81.574219 C 65.726562 81.574219 66.179688 81.117188 66.179688 80.5625 L 66.179688 70.332031 C 66.179688 69.980469 66.03125 69.675781 65.726562 69.523438 L 61.117188 66.28125 L 61.117188 45.015625 C 61.117188 44.613281 60.863281 44.207031 60.460938 44.054688 L 57.066406 42.839844 L 57.066406 37.015625 C 57.066406 36.15625 56.5625 35.398438 55.75 35.09375 L 30.183594 25.777344 L 62.941406 25.777344 L 62.941406 29.726562 L 68.207031 29.726562 L 68.207031 32.410156 L 52.511719 28.867188 C 52.257812 28.816406 52.054688 28.816406 51.800781 28.816406 C 50.585938 28.816406 49.574219 29.523438 49.066406 30.535156 L 50.992188 31.246094 C 51.195312 30.992188 51.5 30.839844 51.800781 30.839844 C 51.851562 30.839844 51.953125 30.839844 52.003906 30.890625 L 85.625 38.484375 C 86.179688 38.585938 86.535156 39.144531 86.382812 39.699219 L 76.460938 82.484375 L 68.207031 80.613281 C 68.207031 81.320312 67.902344 82.03125 67.449219 82.535156 L 76.003906 84.460938 C 76.15625 84.511719 76.308594 84.511719 76.460938 84.511719 C 77.371094 84.511719 78.230469 83.902344 78.433594 82.941406 L 88.410156 40.105469 C 88.613281 39.296875 88.460938 38.484375 88.003906 37.828125 C 87.546875 37.117188 86.890625 36.664062 86.082031 36.460938 L 70.230469 32.917969 L 70.230469 29.777344 C 70.230469 28.664062 69.320312 27.75 68.207031 27.75 L 64.964844 27.75 L 64.964844 25.777344 C 64.964844 24.664062 64.054688 23.75 62.941406 23.75 L 25.675781 23.75 C 24.5625 23.75 23.652344 24.664062 23.652344 25.777344 L 23.652344 25.980469 C 23.652344 26.082031 23.652344 26.183594 23.652344 26.285156 L 23.652344 75.800781 C 23.652344 76.664062 24.15625 77.421875 24.96875 77.675781 Z M 57.066406 44.964844 L 59.09375 45.726562 L 59.09375 66.789062 C 59.09375 67.144531 59.246094 67.449219 59.546875 67.597656 L 64.15625 70.839844 L 64.15625 79.496094 L 60.105469 79.496094 C 59.546875 79.496094 59.09375 79.953125 59.09375 80.511719 L 59.09375 82.941406 L 57.066406 82.082031 Z M 25.675781 26.285156 L 55.042969 37.015625 L 55.042969 86.535156 L 25.675781 75.800781 Z M 25.675781 26.285156"/></g></svg>