<svg xmlns="http://www.w3.org/2000/svg" xmlns:xlink="http://www.w3.org/1999/xlink" width="150" height="150" preserveAspectRatio="xMidYMid meet" version="1.0" viewBox="0 0 112.5 112.5" zoomAndPan="magnify"><defs><clipPath id="52e75434bf"><path d="M 0 0 L 112.003906 0 L 112.003906 112.003906 L 0 112.003906 Z M 0 0" clip-rule="nonzero"/></clipPath><clipPath id="f7ee5835c6"><path d="M 27.019531 23 L 85.257812 23 L 85.257812 84.640625 L 27.019531 84.640625 Z M 27.019531 23" clip-rule="nonzero"/></clipPath></defs><g clip-path="url(#52e75434bf)"><path fill="#fff" fill-opacity="1" fill-rule="nonzero" d="M 0 0 L 112.003906 0 L 112.003906 112.003906 L 0 112.003906 Z M 0 0"/><path fill="#fff" fill-opacity="1" fill-rule="nonzero" d="M 0 0 L 112.003906 0 L 112.003906 112.003906 L 0 112.003906 Z M 0 0"/></g><g clip-path="url(#f7ee5835c6)"><path fill="#000" fill-opacity="1" fill-rule="evenodd" d="M 52.363281 43.710938 L 54.421875 43.710938 L 54.421875 45.761719 L 52.363281 45.761719 Z M 52.019531 47.808594 L 54.765625 47.808594 C 55.714844 47.808594 56.484375 47.039062 56.484375 46.097656 L 56.484375 43.363281 C 56.484375 42.425781 55.714844 41.664062 54.765625 41.664062 L 52.019531 41.664062 C 51.070312 41.664062 50.300781 42.425781 50.300781 43.363281 L 50.300781 46.097656 C 50.300781 47.039062 51.070312 47.808594 52.019531 47.808594 Z M 52.363281 52.835938 L 54.421875 52.835938 L 54.421875 54.878906 L 52.363281 54.878906 Z M 52.019531 56.933594 L 54.765625 56.933594 C 55.714844 56.933594 56.484375 56.164062 56.484375 55.222656 L 56.484375 52.492188 C 56.484375 51.550781 55.714844 50.78125 54.765625 50.78125 L 52.019531 50.78125 C 51.070312 50.78125 50.300781 51.550781 50.300781 52.492188 L 50.300781 55.222656 C 50.300781 56.164062 51.070312 56.933594 52.019531 56.933594 Z M 61.542969 52.835938 L 63.605469 52.835938 L 63.605469 54.878906 L 61.542969 54.878906 Z M 61.199219 56.933594 L 63.949219 56.933594 C 64.894531 56.933594 65.667969 56.164062 65.667969 55.222656 L 65.667969 52.492188 C 65.667969 51.550781 64.894531 50.78125 63.949219 50.78125 L 61.199219 50.78125 C 60.253906 50.78125 59.484375 51.550781 59.484375 52.492188 L 59.484375 55.222656 C 59.484375 56.164062 60.253906 56.933594 61.199219 56.933594 Z M 61.542969 43.710938 L 63.605469 43.710938 L 63.605469 45.761719 L 61.542969 45.761719 Z M 61.199219 47.808594 L 63.949219 47.808594 C 64.894531 47.808594 65.667969 47.039062 65.667969 46.097656 L 65.667969 43.363281 C 65.667969 42.425781 64.894531 41.664062 63.949219 41.664062 L 61.199219 41.664062 C 60.253906 41.664062 59.484375 42.425781 59.484375 43.363281 L 59.484375 46.097656 C 59.484375 47.039062 60.253906 47.808594 61.199219 47.808594 Z M 44.101562 72.40625 C 44.742188 73.035156 44.308594 74.148438 43.375 74.148438 C 43.109375 74.148438 42.847656 74.054688 42.644531 73.855469 L 40.28125 71.5 C 40.089844 71.3125 39.980469 71.050781 39.980469 70.777344 L 39.980469 65.945312 C 39.980469 65.386719 40.441406 64.929688 41.011719 64.929688 C 41.578125 64.929688 42.039062 65.386719 42.039062 65.945312 L 42.039062 70.351562 Z M 41.011719 77.804688 C 44.910156 77.804688 48.082031 74.65625 48.082031 70.777344 C 48.082031 66.902344 44.910156 63.753906 41.011719 63.753906 C 37.113281 63.753906 33.941406 66.902344 33.941406 70.777344 C 33.941406 74.65625 37.113281 77.804688 41.011719 77.804688 Z M 41.011719 61.710938 C 35.976562 61.710938 31.878906 65.773438 31.878906 70.777344 C 31.878906 75.789062 35.976562 79.851562 41.011719 79.851562 C 46.046875 79.851562 50.140625 75.789062 50.140625 70.777344 C 50.140625 65.773438 46.046875 61.710938 41.011719 61.710938 Z M 81.414062 74.132812 L 82.675781 72.878906 L 76.828125 67.074219 L 52.960938 67.074219 C 52.539062 67.074219 52.160156 66.816406 52.003906 66.429688 C 50.195312 61.902344 45.863281 58.976562 40.960938 58.976562 C 34.410156 58.976562 29.082031 64.273438 29.082031 70.777344 C 29.082031 77.289062 34.410156 82.582031 40.960938 82.582031 C 45.941406 82.582031 50.429688 79.460938 52.128906 74.804688 C 52.277344 74.398438 52.664062 74.132812 53.097656 74.132812 L 57.648438 74.132812 C 57.921875 74.132812 58.183594 74.242188 58.375 74.433594 L 61.476562 77.511719 L 62.988281 77.511719 L 66.085938 74.433594 C 66.488281 74.035156 67.140625 74.035156 67.542969 74.433594 L 70.644531 77.511719 L 72.152344 77.511719 L 75.253906 74.433594 C 75.445312 74.242188 75.707031 74.132812 75.980469 74.132812 Z M 43.027344 45.847656 L 43.027344 57.078125 C 47.683594 57.769531 51.683594 60.769531 53.640625 65.023438 L 72.941406 65.023438 L 72.941406 45.847656 L 58.761719 31.753906 C 58.335938 31.328125 57.632812 31.328125 57.203125 31.753906 Z M 38.992188 46.960938 L 55.746094 30.304688 C 56.980469 29.085938 58.988281 29.085938 60.21875 30.304688 L 76.972656 46.960938 C 77.320312 47.296875 77.78125 47.488281 78.273438 47.488281 C 79.925781 47.488281 80.722656 45.515625 79.574219 44.375 L 62.410156 27.363281 C 59.953125 24.921875 55.960938 24.933594 53.507812 27.363281 L 36.390625 44.375 C 35.675781 45.089844 35.675781 46.246094 36.390625 46.960938 C 37.101562 47.660156 38.273438 47.664062 38.992188 46.960938 Z M 84.859375 72.15625 L 77.984375 65.324219 C 77.789062 65.136719 77.527344 65.023438 77.253906 65.023438 L 75 65.023438 L 75 47.894531 L 75.515625 48.402344 C 77.050781 49.925781 79.507812 49.917969 81.03125 48.402344 C 82.550781 46.890625 82.550781 44.433594 81.03125 42.925781 L 63.867188 25.90625 C 60.605469 22.679688 55.304688 22.679688 52.050781 25.914062 L 34.933594 42.925781 C 33.414062 44.433594 33.414062 46.890625 34.933594 48.402344 C 36.460938 49.921875 38.917969 49.921875 40.449219 48.402344 L 40.964844 47.894531 L 40.964844 56.933594 C 33.273438 56.933594 27.023438 63.140625 27.023438 70.777344 C 27.023438 78.417969 33.273438 84.628906 40.960938 84.628906 C 46.5625 84.628906 51.628906 81.265625 53.800781 76.183594 L 57.222656 76.183594 L 60.324219 79.261719 C 60.515625 79.453125 60.777344 79.566406 61.050781 79.566406 L 63.414062 79.566406 C 63.6875 79.566406 63.945312 79.453125 64.140625 79.261719 L 66.816406 76.605469 L 69.488281 79.261719 C 69.679688 79.453125 69.945312 79.566406 70.21875 79.566406 L 72.578125 79.566406 C 72.851562 79.566406 73.113281 79.453125 73.308594 79.261719 L 76.40625 76.183594 L 81.839844 76.183594 C 82.113281 76.183594 82.375 76.070312 82.570312 75.882812 L 84.859375 73.605469 C 85.261719 73.207031 85.261719 72.554688 84.859375 72.15625 Z M 84.859375 72.15625"/></g></svg>