<svg xmlns="http://www.w3.org/2000/svg" xmlns:xlink="http://www.w3.org/1999/xlink" width="150" zoomAndPan="magnify" viewBox="0 0 112.5 112.499997" height="150" preserveAspectRatio="xMidYMid meet" version="1.0"><defs><clipPath id="ea8d9d2fad"><path d="M 0 0 L 112.003906 0 L 112.003906 112.003906 L 0 112.003906 Z M 0 0 " clip-rule="nonzero"/></clipPath><clipPath id="ca186a4b72"><path d="M 28.234375 28.816406 L 83.492188 28.816406 L 83.492188 80.335938 L 28.234375 80.335938 Z M 28.234375 28.816406 " clip-rule="nonzero"/></clipPath></defs><g clip-path="url(#ea8d9d2fad)"><path fill="#ffffff" d="M 0 0 L 112.003906 0 L 112.003906 112.003906 L 0 112.003906 Z M 0 0 " fill-opacity="1" fill-rule="nonzero"/><path fill="#ffffff" d="M 0 0 L 112.003906 0 L 112.003906 112.003906 L 0 112.003906 Z M 0 0 " fill-opacity="1" fill-rule="nonzero"/></g><path fill="#000000" d="M 40.445312 51.5 L 60.796875 51.5 L 60.796875 53.550781 L 40.445312 53.550781 Z M 40.445312 51.5 " fill-opacity="1" fill-rule="nonzero"/><path fill="#000000" d="M 40.445312 45.355469 L 60.796875 45.355469 L 60.796875 47.40625 L 40.445312 47.40625 Z M 40.445312 45.355469 " fill-opacity="1" fill-rule="nonzero"/><path fill="#000000" d="M 40.445312 39.210938 L 48.585938 39.210938 L 48.585938 41.257812 L 40.445312 41.257812 Z M 40.445312 39.210938 " fill-opacity="1" fill-rule="nonzero"/><g clip-path="url(#ca186a4b72)"><path fill="#000000" d="M 29.253906 80.183594 L 55.710938 80.183594 C 56.269531 80.183594 56.726562 79.722656 56.726562 79.160156 L 56.726562 76.085938 L 59.78125 76.085938 C 60.339844 76.085938 60.796875 75.625 60.796875 75.0625 L 60.796875 71.988281 L 63.851562 71.988281 C 64.410156 71.988281 64.867188 71.527344 64.867188 70.964844 L 64.867188 60.507812 L 82.289062 42.96875 C 83.480469 41.769531 83.480469 39.824219 82.289062 38.625 C 81.097656 37.425781 79.164062 37.425781 77.976562 38.625 L 64.867188 51.820312 L 64.867188 36.144531 C 64.867188 35.871094 64.757812 35.613281 64.574219 35.417969 L 58.46875 29.273438 C 58.273438 29.078125 58.019531 28.976562 57.746094 28.976562 L 37.394531 28.976562 C 36.835938 28.976562 36.375 29.4375 36.375 30 L 36.375 33.074219 L 33.324219 33.074219 C 32.765625 33.074219 32.304688 33.535156 32.304688 34.097656 L 32.304688 37.171875 L 29.253906 37.171875 C 28.695312 37.171875 28.234375 37.632812 28.234375 38.195312 L 28.234375 79.171875 C 28.234375 79.734375 28.695312 80.195312 29.253906 80.195312 Z M 79.410156 40.070312 C 79.808594 39.671875 80.449219 39.671875 80.84375 40.070312 C 81.242188 40.46875 81.242188 41.113281 80.84375 41.515625 L 78.6875 43.6875 L 77.253906 42.242188 Z M 75.808594 43.695312 L 77.242188 45.140625 L 61.410156 61.078125 L 59.972656 59.636719 Z M 58.753906 32.46875 L 61.386719 35.121094 L 58.753906 35.121094 Z M 38.402344 31.023438 L 56.71875 31.023438 L 56.71875 36.144531 C 56.71875 36.710938 57.175781 37.171875 57.734375 37.171875 L 62.824219 37.171875 L 62.824219 53.867188 L 59.058594 57.660156 L 40.4375 57.660156 L 40.4375 59.707031 L 57.308594 59.707031 L 54.867188 63.804688 L 40.4375 63.804688 L 40.4375 65.851562 L 53.644531 65.851562 L 53.351562 66.355469 C 53.105469 66.753906 53.175781 67.277344 53.503906 67.605469 C 53.695312 67.800781 53.960938 67.902344 54.226562 67.902344 C 54.40625 67.902344 54.582031 67.851562 54.742188 67.757812 L 61.9375 63.414062 C 62.007812 63.375 62.070312 63.324219 62.132812 63.261719 L 62.824219 62.566406 L 62.824219 69.949219 L 38.410156 69.949219 L 38.410156 31.015625 Z M 59.769531 62.328125 L 57.1875 63.898438 L 58.742188 61.292969 L 59.78125 62.339844 Z M 34.339844 35.113281 L 36.375 35.113281 L 36.375 70.964844 C 36.375 71.527344 36.835938 71.988281 37.394531 71.988281 L 58.761719 71.988281 L 58.761719 74.039062 L 34.339844 74.039062 Z M 30.269531 39.210938 L 32.304688 39.210938 L 32.304688 75.0625 C 32.304688 75.625 32.765625 76.085938 33.324219 76.085938 L 54.691406 76.085938 L 54.691406 78.136719 L 30.269531 78.136719 Z M 30.269531 39.210938 " fill-opacity="1" fill-rule="nonzero"/></g><path fill="#000000" d="M 50.621094 39.210938 L 52.65625 39.210938 L 52.65625 41.257812 L 50.621094 41.257812 Z M 50.621094 39.210938 " fill-opacity="1" fill-rule="nonzero"/><path fill="#000000" d="M 54.691406 39.210938 L 56.726562 39.210938 L 56.726562 41.257812 L 54.691406 41.257812 Z M 54.691406 39.210938 " fill-opacity="1" fill-rule="nonzero"/><path fill="#000000" d="M 58.761719 39.210938 L 60.796875 39.210938 L 60.796875 41.257812 L 58.761719 41.257812 Z M 58.761719 39.210938 " fill-opacity="1" fill-rule="nonzero"/></svg>