<svg xmlns="http://www.w3.org/2000/svg" xmlns:xlink="http://www.w3.org/1999/xlink" width="150" height="150" preserveAspectRatio="xMidYMid meet" version="1.0" viewBox="0 0 112.5 112.5" zoomAndPan="magnify"><defs><clipPath id="119109a6ef"><path d="M 0 0 L 112.003906 0 L 112.003906 112.003906 L 0 112.003906 Z M 0 0" clip-rule="nonzero"/></clipPath><clipPath id="eac1a62f10"><path d="M 39 23.609375 L 73 23.609375 L 73 39 L 39 39 Z M 39 23.609375" clip-rule="nonzero"/></clipPath><clipPath id="bb0de580eb"><path d="M 72 54 L 80.363281 54 L 80.363281 60 L 72 60 Z M 72 54" clip-rule="nonzero"/></clipPath><clipPath id="e9049e0d0f"><path d="M 31.828125 54.832031 L 80.355469 54.832031 L 80.355469 88.523438 L 31.828125 88.523438 Z M 31.828125 54.832031" clip-rule="nonzero"/></clipPath></defs><g clip-path="url(#119109a6ef)"><path fill="#fff" fill-opacity="1" fill-rule="nonzero" d="M 0 0 L 112.003906 0 L 112.003906 112.003906 L 0 112.003906 Z M 0 0"/><path fill="#fff" fill-opacity="1" fill-rule="nonzero" d="M 0 0 L 112.003906 0 L 112.003906 112.003906 L 0 112.003906 Z M 0 0"/></g><path fill="#000" fill-opacity="1" fill-rule="nonzero" d="M 68.417969 32.644531 C 68.933594 32.644531 69.324219 32.226562 69.324219 31.707031 L 69.324219 26.417969 C 69.324219 25.902344 68.917969 25.546875 68.398438 25.546875 L 63.867188 25.546875 C 63.351562 25.546875 62.835938 25.902344 62.835938 26.417969 L 62.835938 27.816406 C 62.835938 28.332031 63.292969 28.75 63.8125 28.75 C 64.328125 28.75 64.785156 28.332031 64.785156 27.816406 L 64.785156 27.359375 L 67.507812 27.359375 L 67.507812 31.707031 C 67.507812 32.226562 67.898438 32.644531 68.417969 32.644531"/><g clip-path="url(#eac1a62f10)"><path fill="#000" fill-opacity="1" fill-rule="nonzero" d="M 55.65625 23.953125 L 40.140625 37.027344 C 39.746094 37.363281 39.695312 37.953125 40.03125 38.347656 C 40.214844 38.566406 40.480469 38.679688 40.746094 38.679688 C 40.957031 38.679688 41.171875 38.605469 41.347656 38.457031 L 56.261719 25.890625 L 71.285156 38.460938 C 71.683594 38.792969 72.273438 38.738281 72.605469 38.34375 C 72.9375 37.949219 72.882812 37.359375 72.488281 37.027344 L 56.859375 23.953125 C 56.511719 23.660156 56.003906 23.660156 55.65625 23.953125"/></g><path fill="#000" fill-opacity="1" fill-rule="nonzero" d="M 59.59375 40.707031 L 63.617188 40.707031 L 63.617188 44.855469 L 59.59375 44.855469 Z M 65.5625 39.828125 C 65.5625 39.3125 65.144531 38.894531 64.625 38.894531 L 58.585938 38.894531 C 58.066406 38.894531 57.648438 39.3125 57.648438 39.828125 L 57.648438 45.863281 C 57.648438 46.378906 58.066406 46.796875 58.585938 46.796875 L 64.625 46.796875 C 65.144531 46.796875 65.5625 46.378906 65.5625 45.863281 L 65.5625 39.828125"/><path fill="#000" fill-opacity="1" fill-rule="nonzero" d="M 54.554688 52.757812 L 68.398438 52.757812 C 68.917969 52.757812 69.324219 52.339844 69.324219 51.824219 L 69.324219 38.496094 C 69.324219 37.980469 68.933594 37.5625 68.417969 37.5625 C 67.898438 37.5625 67.507812 37.980469 67.507812 38.496094 L 67.507812 50.945312 L 55.574219 50.945312 L 55.574219 40.257812 C 55.574219 39.742188 55.070312 39.28125 54.554688 39.28125 L 48.511719 39.28125 C 47.996094 39.28125 47.527344 39.742188 47.527344 40.257812 L 47.527344 50.683594 L 45.195312 50.683594 L 45.195312 38.75 C 45.195312 38.234375 44.738281 37.816406 44.21875 37.816406 C 43.703125 37.816406 43.246094 38.234375 43.246094 38.75 L 43.246094 51.574219 C 43.246094 52.089844 43.714844 52.5 44.230469 52.5 L 48.511719 52.5 C 49.027344 52.5 49.476562 52.089844 49.476562 51.574219 L 49.476562 41.226562 L 53.625 41.226562 L 53.625 51.824219 C 53.625 52.339844 54.035156 52.757812 54.554688 52.757812"/><path fill="#000" fill-opacity="1" fill-rule="nonzero" d="M 32.140625 55.476562 C 31.914062 55.9375 32.105469 56.5 32.566406 56.726562 L 37.851562 59.332031 C 37.984375 59.398438 38.128906 59.429688 38.265625 59.429688 C 38.609375 59.429688 38.941406 59.238281 39.105469 58.910156 C 39.335938 58.445312 39.144531 57.886719 38.679688 57.65625 L 33.394531 55.050781 C 32.933594 54.824219 32.371094 55.011719 32.140625 55.476562"/><path fill="#000" fill-opacity="1" fill-rule="nonzero" d="M 35.039062 48.460938 C 34.660156 48.808594 34.632812 49.398438 34.980469 49.777344 L 40.171875 55.449219 C 40.355469 55.648438 40.609375 55.75 40.863281 55.75 C 41.089844 55.75 41.3125 55.671875 41.492188 55.507812 C 41.875 55.15625 41.902344 54.566406 41.554688 54.1875 L 36.363281 48.519531 C 36.011719 48.136719 35.421875 48.109375 35.039062 48.460938"/><g clip-path="url(#bb0de580eb)"><path fill="#000" fill-opacity="1" fill-rule="nonzero" d="M 73.078125 58.910156 C 73.242188 59.238281 73.570312 59.429688 73.917969 59.429688 C 74.054688 59.429688 74.199219 59.398438 74.332031 59.332031 L 79.617188 56.726562 C 80.078125 56.5 80.269531 55.9375 80.042969 55.476562 C 79.8125 55.011719 79.25 54.824219 78.789062 55.050781 L 73.503906 57.65625 C 73.039062 57.886719 72.847656 58.445312 73.078125 58.910156"/></g><path fill="#000" fill-opacity="1" fill-rule="nonzero" d="M 75.820312 48.519531 L 70.628906 54.1875 C 70.28125 54.566406 70.308594 55.15625 70.691406 55.507812 C 70.867188 55.671875 71.09375 55.75 71.320312 55.75 C 71.574219 55.75 71.828125 55.648438 72.011719 55.449219 L 77.203125 49.777344 C 77.550781 49.398438 77.523438 48.808594 77.144531 48.460938 C 76.761719 48.109375 76.171875 48.136719 75.820312 48.519531"/><g clip-path="url(#e9049e0d0f)"><path fill="#000" fill-opacity="1" fill-rule="nonzero" d="M 32.761719 80.394531 L 42.398438 80.398438 L 50.167969 87.527344 C 50.886719 88.1875 51.824219 88.523438 52.757812 88.523438 C 53.609375 88.523438 54.453125 88.246094 55.121094 87.6875 C 55.867188 87.066406 56.304688 86.171875 56.328125 85.238281 C 56.328125 85.183594 56.328125 85.128906 56.328125 85.078125 C 57.292969 85.121094 58.273438 84.800781 59.007812 84.125 C 59.652344 83.535156 60.011719 82.753906 60.070312 81.953125 C 61.019531 82.085938 62.007812 81.871094 62.792969 81.296875 C 63.578125 80.726562 64.070312 79.882812 64.171875 78.96875 C 65.257812 79.183594 66.425781 78.933594 67.296875 78.207031 C 68.039062 77.585938 68.480469 76.691406 68.503906 75.757812 C 68.523438 74.828125 68.128906 73.921875 67.421875 73.269531 L 59.328125 65.84375 L 56.863281 63.601562 C 55.757812 62.59375 54.023438 62.59375 52.921875 63.609375 L 49.472656 66.773438 C 47.96875 68.15625 45.546875 68.195312 43.988281 66.898438 L 53.507812 58.160156 C 55.546875 56.289062 58.875 56.285156 60.917969 58.160156 L 66.691406 63.492188 C 66.863281 63.652344 67.089844 63.773438 67.324219 63.773438 L 79.417969 63.773438 C 79.9375 63.773438 80.355469 63.316406 80.355469 62.800781 C 80.355469 62.285156 79.9375 61.828125 79.417969 61.828125 L 67.6875 61.828125 L 62.183594 56.78125 C 59.441406 54.265625 54.980469 54.269531 52.238281 56.78125 L 41.964844 66.210938 C 41.773438 66.390625 41.664062 66.640625 41.664062 66.902344 C 41.664062 67.164062 41.773438 67.414062 41.96875 67.589844 L 42.578125 68.152344 C 44.828125 70.214844 48.488281 70.214844 50.738281 68.152344 L 54.191406 64.984375 C 54.570312 64.632812 55.21875 64.632812 55.601562 64.980469 L 66.15625 74.648438 C 66.472656 74.9375 66.640625 75.316406 66.632812 75.714844 C 66.621094 76.117188 66.429688 76.492188 66.09375 76.773438 C 65.410156 77.347656 64.292969 77.300781 63.609375 76.671875 L 63.105469 76.214844 C 63.105469 76.210938 63.105469 76.210938 63.105469 76.210938 L 60.066406 73.421875 C 59.683594 73.074219 59.09375 73.097656 58.742188 73.476562 C 58.394531 73.859375 58.417969 74.449219 58.800781 74.796875 L 61.839844 77.585938 C 61.839844 77.585938 61.839844 77.589844 61.839844 77.589844 L 61.84375 77.59375 C 62.171875 77.894531 62.339844 78.285156 62.316406 78.699219 C 62.292969 79.125 62.070312 79.511719 61.6875 79.789062 C 61.109375 80.214844 60.269531 80.226562 59.621094 79.851562 L 56.738281 77.203125 C 56.355469 76.855469 55.765625 76.878906 55.414062 77.261719 C 55.066406 77.640625 55.089844 78.230469 55.472656 78.582031 L 57.847656 80.765625 C 57.871094 80.804688 57.894531 80.839844 57.921875 80.878906 C 58.375 81.464844 58.300781 82.234375 57.742188 82.75 C 57.148438 83.292969 56.203125 83.359375 55.523438 82.953125 L 52.695312 80.359375 C 52.3125 80.011719 51.722656 80.035156 51.371094 80.414062 C 51.023438 80.792969 51.046875 81.386719 51.425781 81.734375 L 53.820312 83.929688 C 53.863281 84 53.914062 84.066406 53.980469 84.125 C 54.296875 84.417969 54.464844 84.796875 54.457031 85.195312 C 54.445312 85.597656 54.257812 85.972656 53.921875 86.253906 C 53.234375 86.824219 52.117188 86.78125 51.433594 86.152344 L 43.398438 78.777344 C 43.222656 78.617188 43 78.472656 42.765625 78.472656 L 32.765625 78.414062 L 32.761719 78.414062 C 32.246094 78.414062 31.828125 78.890625 31.828125 79.40625 C 31.828125 79.921875 32.246094 80.394531 32.761719 80.394531"/></g></svg>