<svg xmlns="http://www.w3.org/2000/svg" xmlns:xlink="http://www.w3.org/1999/xlink" width="150" zoomAndPan="magnify" viewBox="0 0 112.5 112.499997" height="150" preserveAspectRatio="xMidYMid meet" version="1.0"><defs><clipPath id="ecb963fb98"><path d="M 0 0 L 112.003906 0 L 112.003906 112.003906 L 0 112.003906 Z M 0 0 " clip-rule="nonzero"/></clipPath><clipPath id="8b555eec4c"><path d="M 41 29.15625 L 86.277344 29.15625 L 86.277344 77 L 41 77 Z M 41 29.15625 " clip-rule="nonzero"/></clipPath><clipPath id="6b0bcd2026"><path d="M 25.792969 64 L 56 64 L 56 82.917969 L 25.792969 82.917969 Z M 25.792969 64 " clip-rule="nonzero"/></clipPath></defs><g clip-path="url(#ecb963fb98)"><path fill="#ffffff" d="M 0 0 L 112.003906 0 L 112.003906 112.003906 L 0 112.003906 Z M 0 0 " fill-opacity="1" fill-rule="nonzero"/><path fill="#ffffff" d="M 0 0 L 112.003906 0 L 112.003906 112.003906 L 0 112.003906 Z M 0 0 " fill-opacity="1" fill-rule="nonzero"/></g><path fill="#000000" d="M 60.410156 66.484375 C 60.410156 66.859375 60.714844 67.171875 61.097656 67.171875 L 64.257812 67.171875 C 64.640625 67.171875 64.945312 66.867188 64.945312 66.484375 L 64.945312 64.09375 C 67.839844 63.4375 70.203125 61.105469 70.496094 58.078125 C 70.894531 53.957031 67.65625 50.476562 63.625 50.476562 L 61.730469 50.476562 C 60.421875 50.476562 59.355469 49.410156 59.355469 48.101562 C 59.355469 46.792969 60.421875 45.730469 61.730469 45.730469 L 63.625 45.730469 C 64.761719 45.730469 65.710938 46.53125 65.941406 47.597656 C 66.003906 47.898438 66.289062 48.101562 66.59375 48.101562 L 69.800781 48.101562 C 70.195312 48.101562 70.53125 47.761719 70.488281 47.375 C 70.171875 44.347656 67.882812 41.894531 64.9375 41.324219 L 64.9375 39 C 64.9375 38.625 64.632812 38.3125 64.253906 38.3125 L 61.089844 38.3125 C 60.714844 38.3125 60.402344 38.617188 60.402344 39 L 60.402344 41.335938 C 57.011719 41.996094 54.492188 45.140625 54.855469 48.792969 C 55.203125 52.378906 58.429688 55.011719 62.035156 55.011719 L 63.617188 55.011719 C 64.925781 55.011719 65.992188 56.070312 65.992188 57.378906 C 65.992188 58.6875 64.933594 59.753906 63.617188 59.753906 L 61.726562 59.753906 C 60.589844 59.753906 59.636719 58.953125 59.40625 57.878906 C 59.34375 57.582031 59.058594 57.371094 58.753906 57.371094 L 55.546875 57.371094 C 55.152344 57.371094 54.816406 57.710938 54.859375 58.101562 C 55.179688 61.132812 57.464844 63.582031 60.410156 64.15625 Z M 60.410156 66.484375 " fill-opacity="1" fill-rule="nonzero"/><g clip-path="url(#8b555eec4c)"><path fill="#000000" d="M 62.671875 29.15625 C 53.164062 29.15625 44.953125 34.8125 41.238281 42.9375 C 42.828125 42.96875 44.324219 43.332031 45.683594 43.910156 C 48.871094 37.773438 55.292969 33.582031 62.671875 33.582031 C 73.230469 33.582031 81.835938 42.167969 81.835938 52.738281 C 81.835938 63.296875 73.230469 71.902344 62.671875 71.902344 C 61.445312 71.902344 60.269531 71.78125 59.109375 71.5625 C 59.210938 72.019531 59.300781 72.480469 59.351562 72.957031 L 59.367188 73.089844 L 59.625 76.128906 C 60.613281 76.261719 61.636719 76.332031 62.671875 76.332031 C 75.6875 76.332031 86.269531 65.730469 86.269531 52.730469 C 86.269531 39.734375 75.6875 29.15625 62.671875 29.15625 Z M 62.671875 29.15625 " fill-opacity="1" fill-rule="nonzero"/></g><g clip-path="url(#6b0bcd2026)"><path fill="#000000" d="M 47.703125 64.585938 C 47.316406 64.464844 46.902344 64.695312 46.769531 65.078125 L 42.777344 76.5 L 41.863281 69.03125 L 42.472656 69.03125 C 42.839844 69.03125 43.136719 68.734375 43.136719 68.367188 L 43.136719 66.316406 C 43.136719 65.945312 42.839844 65.648438 42.472656 65.648438 L 39.125 65.648438 C 38.757812 65.648438 38.457031 65.945312 38.457031 66.316406 L 38.457031 68.367188 C 38.457031 68.734375 38.757812 69.03125 39.125 69.03125 L 39.734375 69.03125 L 38.820312 76.5 L 34.824219 65.078125 C 34.691406 64.695312 34.28125 64.464844 33.898438 64.585938 C 29.980469 65.808594 26.988281 69.203125 26.476562 73.464844 L 25.957031 79.589844 C 25.800781 81.367188 27.207031 82.890625 28.992188 82.890625 L 52.613281 82.917969 C 54.398438 82.917969 55.800781 81.390625 55.65625 79.605469 L 55.132812 73.460938 C 54.613281 69.203125 51.621094 65.808594 47.703125 64.585938 Z M 47.703125 64.585938 " fill-opacity="1" fill-rule="nonzero"/></g><path fill="#000000" d="M 48.929688 55.296875 C 48.929688 55.828125 48.878906 56.355469 48.773438 56.875 C 48.671875 57.398438 48.515625 57.90625 48.3125 58.398438 C 48.109375 58.886719 47.859375 59.355469 47.5625 59.796875 C 47.269531 60.242188 46.933594 60.648438 46.554688 61.027344 C 46.179688 61.402344 45.769531 61.738281 45.328125 62.035156 C 44.886719 62.328125 44.417969 62.578125 43.925781 62.78125 C 43.4375 62.988281 42.929688 63.140625 42.40625 63.242188 C 41.886719 63.347656 41.359375 63.398438 40.828125 63.398438 C 40.292969 63.398438 39.769531 63.347656 39.246094 63.242188 C 38.722656 63.140625 38.21875 62.988281 37.726562 62.78125 C 37.234375 62.578125 36.769531 62.328125 36.324219 62.035156 C 35.882812 61.738281 35.472656 61.402344 35.097656 61.027344 C 34.722656 60.648438 34.386719 60.242188 34.089844 59.796875 C 33.792969 59.355469 33.542969 58.886719 33.339844 58.398438 C 33.136719 57.90625 32.984375 57.398438 32.878906 56.875 C 32.777344 56.355469 32.722656 55.828125 32.722656 55.296875 C 32.722656 54.765625 32.777344 54.238281 32.878906 53.714844 C 32.984375 53.191406 33.136719 52.6875 33.339844 52.195312 C 33.542969 51.703125 33.792969 51.234375 34.089844 50.792969 C 34.386719 50.351562 34.722656 49.941406 35.097656 49.566406 C 35.472656 49.1875 35.882812 48.851562 36.324219 48.558594 C 36.769531 48.261719 37.234375 48.011719 37.726562 47.808594 C 38.21875 47.605469 38.722656 47.453125 39.246094 47.347656 C 39.769531 47.242188 40.292969 47.191406 40.828125 47.191406 C 41.359375 47.191406 41.886719 47.242188 42.40625 47.347656 C 42.929688 47.453125 43.4375 47.605469 43.925781 47.808594 C 44.417969 48.011719 44.886719 48.261719 45.328125 48.558594 C 45.769531 48.851562 46.179688 49.1875 46.554688 49.566406 C 46.933594 49.941406 47.269531 50.351562 47.5625 50.792969 C 47.859375 51.234375 48.109375 51.703125 48.3125 52.195312 C 48.515625 52.6875 48.671875 53.191406 48.773438 53.714844 C 48.878906 54.238281 48.929688 54.765625 48.929688 55.296875 Z M 48.929688 55.296875 " fill-opacity="1" fill-rule="nonzero"/></svg>